<svg width="20.000000" height="20.000000" viewBox="0 0 20 20" fill="none" xmlns="http://www.w3.org/2000/svg" xmlns:xlink="http://www.w3.org/1999/xlink">
	<desc>
			Created with Pixso.
	</desc>
	<defs/>
	<circle cx="10.000000" cy="10.000000" r="10.000000" fill="#12141D" fill-opacity="1.000000"/>
	<path d="M15.04 6.23C14.96 6.16 14.87 6.1 14.78 6.06C14.68 6.02 14.57 6 14.47 6C14.36 6 14.26 6.02 14.16 6.06C14.06 6.1 13.97 6.16 13.9 6.23L7.91 12.23L5.39 9.71C5.31 9.63 5.22 9.57 5.12 9.53C5.02 9.49 4.91 9.47 4.8 9.48C4.69 9.48 4.59 9.5 4.49 9.54C4.39 9.59 4.3 9.65 4.23 9.73C4.15 9.8 4.09 9.9 4.05 10C4.01 10.1 3.99 10.2 4 10.31C4 10.42 4.02 10.53 4.06 10.63C4.11 10.72 4.17 10.81 4.25 10.89L7.33 13.98C7.41 14.05 7.5 14.11 7.6 14.15C7.69 14.19 7.8 14.22 7.91 14.22C8.01 14.22 8.12 14.19 8.21 14.15C8.31 14.11 8.4 14.05 8.48 13.98L15.04 7.42C15.12 7.34 15.18 7.25 15.23 7.15C15.27 7.04 15.3 6.94 15.3 6.82C15.3 6.71 15.27 6.6 15.23 6.5C15.18 6.4 15.12 6.31 15.04 6.23Z" fill="#D1EDF5" fill-opacity="1.000000" fill-rule="nonzero"/>
</svg>
