<svg width="25.186523" height="25.186516" viewBox="0 0 25.1865 25.1865" fill="none" xmlns="http://www.w3.org/2000/svg" xmlns:xlink="http://www.w3.org/1999/xlink">
	<desc>
			Created with Pixso.
	</desc>
	<defs/>
	<path id="Vector" d="M11.8 9.69L11.8 11.71C11.05 11.52 10.54 11.09 10.54 10.7C10.54 10.3 11.05 9.87 11.8 9.69Z" fill="#000000" fill-opacity="1.000000" fill-rule="nonzero"/>
	<path id="Vector" d="M14.64 14.48C14.64 14.87 14.13 15.3 13.38 15.48L13.38 13.47C14.13 13.65 14.64 14.08 14.64 14.48Z" fill="#000000" fill-opacity="1.000000" fill-rule="nonzero"/>
	<path id="Vector" d="M19.82 5.35C17.89 3.42 15.32 2.36 12.59 2.36C9.86 2.36 7.29 3.42 5.36 5.35C3.42 7.28 2.36 9.85 2.36 12.59C2.36 13.93 2.62 15.25 3.13 16.5C3.65 17.75 4.4 18.86 5.36 19.82C6.3 20.77 7.42 21.52 8.67 22.03C9.92 22.56 11.23 22.82 12.59 22.82C13.94 22.82 15.25 22.56 16.5 22.03C17.75 21.52 18.87 20.77 19.82 19.82C20.77 18.86 21.53 17.75 22.04 16.5C22.56 15.25 22.82 13.93 22.82 12.59C22.82 9.85 21.76 7.28 19.82 5.35ZM13.38 17.09L13.38 17.31C13.38 17.74 13.02 18.1 12.59 18.1C12.16 18.1 11.8 17.74 11.8 17.31L11.8 17.08C10.88 16.93 10.06 16.53 9.53 15.94C9.3 15.66 9.28 15.26 9.49 14.97C9.7 14.67 10.08 14.56 10.42 14.69L11.8 15.21L11.8 13.3C10.16 13.05 8.97 11.99 8.97 10.7C8.97 9.4 10.16 8.35 11.8 8.09L11.8 7.87C11.8 7.42 12.16 7.08 12.59 7.08C13.02 7.08 13.38 7.42 13.38 7.87L13.38 8.09C14.3 8.24 15.12 8.64 15.64 9.23C15.87 9.5 15.89 9.9 15.68 10.21C15.54 10.42 15.3 10.54 15.04 10.54C14.95 10.54 14.86 10.52 14.76 10.49L13.38 9.95L13.38 11.86C15.01 12.12 16.21 13.18 16.21 14.48C16.21 15.78 15.01 16.83 13.38 17.09Z" fill="#000000" fill-opacity="1.000000" fill-rule="nonzero"/>
</svg>
