<svg width="18.000000" height="2.891602" viewBox="0 0 18 2.8916" fill="none" xmlns="http://www.w3.org/2000/svg" xmlns:xlink="http://www.w3.org/1999/xlink">
	<desc>
			Created with Pixso.
	</desc>
	<defs/>
	<path id="Vector" d="M8 1.44C8 1.19 8.44 1 9 1C9.55 1 10 1.19 10 1.44C10 1.69 9.55 1.89 9 1.89C8.44 1.89 8 1.69 8 1.44Z" stroke="#1A202C" stroke-opacity="1.000000" stroke-width="2.000000" stroke-linejoin="round"/>
	<path id="Vector" d="M1 1.44C1 1.19 1.44 1 2 1C2.55 1 3 1.19 3 1.44C3 1.69 2.55 1.89 2 1.89C1.44 1.89 1 1.69 1 1.44Z" stroke="#1A202C" stroke-opacity="1.000000" stroke-width="2.000000" stroke-linejoin="round"/>
	<path id="Vector" d="M15 1.44C15 1.19 15.44 1 16 1C16.55 1 17 1.19 17 1.44C17 1.69 16.55 1.89 16 1.89C15.44 1.89 15 1.69 15 1.44Z" stroke="#1A202C" stroke-opacity="1.000000" stroke-width="2.000000" stroke-linejoin="round"/>
</svg>
