<svg width="335" height="173" viewBox="0 0 335 173" fill="none" xmlns="http://www.w3.org/2000/svg">
<g opacity="0.7">
<rect x="207.423" y="173" width="2.83607" height="2.84073" transform="rotate(-90 207.423 173)" fill="#C5C5C5"/>
<rect x="207.423" y="154.093" width="2.83607" height="2.84073" transform="rotate(-90 207.423 154.093)" fill="#C5C5C5"/>
<rect x="207.423" y="135.186" width="2.83607" height="2.84073" transform="rotate(-90 207.423 135.186)" fill="#C5C5C5"/>
<rect x="207.423" y="116.278" width="2.83607" height="2.84073" transform="rotate(-90 207.423 116.278)" fill="#C5C5C5"/>
<rect x="207.423" y="97.3716" width="2.83607" height="2.84073" transform="rotate(-90 207.423 97.3716)" fill="#C5C5C5"/>
<rect x="207.423" y="78.4639" width="2.83607" height="2.84073" transform="rotate(-90 207.423 78.4639)" fill="#C5C5C5"/>
<rect x="207.423" y="59.5566" width="2.83607" height="2.84073" transform="rotate(-90 207.423 59.5566)" fill="#C5C5C5"/>
<rect x="207.423" y="40.6494" width="2.83607" height="2.84073" transform="rotate(-90 207.423 40.6494)" fill="#C5C5C5"/>
<rect x="207.423" y="21.7422" width="2.83607" height="2.84073" transform="rotate(-90 207.423 21.7422)" fill="#C5C5C5"/>
<rect x="207.423" y="2.83594" width="2.83607" height="2.84073" transform="rotate(-90 207.423 2.83594)" fill="#C5C5C5"/>
<rect x="226.36" y="173" width="2.83607" height="2.84073" transform="rotate(-90 226.36 173)" fill="#C5C5C5"/>
<rect x="226.36" y="154.093" width="2.83607" height="2.84073" transform="rotate(-90 226.36 154.093)" fill="#C5C5C5"/>
<rect x="226.36" y="135.186" width="2.83607" height="2.84073" transform="rotate(-90 226.36 135.186)" fill="#C5C5C5"/>
<rect x="226.36" y="116.278" width="2.83607" height="2.84073" transform="rotate(-90 226.36 116.278)" fill="#C5C5C5"/>
<rect x="226.36" y="97.3716" width="2.83607" height="2.84073" transform="rotate(-90 226.36 97.3716)" fill="#C5C5C5"/>
<rect x="226.36" y="78.4639" width="2.83607" height="2.84073" transform="rotate(-90 226.36 78.4639)" fill="#C5C5C5"/>
<rect x="226.36" y="59.5566" width="2.83607" height="2.84073" transform="rotate(-90 226.36 59.5566)" fill="#C5C5C5"/>
<rect x="226.36" y="40.6494" width="2.83607" height="2.84073" transform="rotate(-90 226.36 40.6494)" fill="#C5C5C5"/>
<rect x="226.36" y="21.7422" width="2.83607" height="2.84073" transform="rotate(-90 226.36 21.7422)" fill="#C5C5C5"/>
<rect x="226.36" y="2.83594" width="2.83607" height="2.84073" transform="rotate(-90 226.36 2.83594)" fill="#C5C5C5"/>
<rect x="245.299" y="173" width="2.83607" height="2.84073" transform="rotate(-90 245.299 173)" fill="#C5C5C5"/>
<rect x="245.299" y="154.093" width="2.83607" height="2.84073" transform="rotate(-90 245.299 154.093)" fill="#C5C5C5"/>
<rect x="245.299" y="135.186" width="2.83607" height="2.84073" transform="rotate(-90 245.299 135.186)" fill="#C5C5C5"/>
<rect x="245.299" y="116.278" width="2.83607" height="2.84073" transform="rotate(-90 245.299 116.278)" fill="#C5C5C5"/>
<rect x="245.299" y="97.3716" width="2.83607" height="2.84073" transform="rotate(-90 245.299 97.3716)" fill="#C5C5C5"/>
<rect x="245.299" y="78.4639" width="2.83607" height="2.84073" transform="rotate(-90 245.299 78.4639)" fill="#C5C5C5"/>
<rect x="245.299" y="59.5566" width="2.83607" height="2.84073" transform="rotate(-90 245.299 59.5566)" fill="#C5C5C5"/>
<rect x="245.299" y="40.6494" width="2.83607" height="2.84073" transform="rotate(-90 245.299 40.6494)" fill="#C5C5C5"/>
<rect x="245.299" y="21.7422" width="2.83607" height="2.84073" transform="rotate(-90 245.299 21.7422)" fill="#C5C5C5"/>
<rect x="245.299" y="2.83594" width="2.83607" height="2.84073" transform="rotate(-90 245.299 2.83594)" fill="#C5C5C5"/>
<rect x="264.238" y="173" width="2.83607" height="2.84073" transform="rotate(-90 264.238 173)" fill="#C5C5C5"/>
<rect x="264.238" y="154.093" width="2.83607" height="2.84073" transform="rotate(-90 264.238 154.093)" fill="#C5C5C5"/>
<rect x="264.238" y="135.186" width="2.83607" height="2.84073" transform="rotate(-90 264.238 135.186)" fill="#C5C5C5"/>
<rect x="264.238" y="116.278" width="2.83607" height="2.84073" transform="rotate(-90 264.238 116.278)" fill="#C5C5C5"/>
<rect x="264.238" y="97.3716" width="2.83607" height="2.84073" transform="rotate(-90 264.238 97.3716)" fill="#C5C5C5"/>
<rect x="264.238" y="78.4639" width="2.83607" height="2.84073" transform="rotate(-90 264.238 78.4639)" fill="#C5C5C5"/>
<rect x="264.238" y="59.5566" width="2.83607" height="2.84073" transform="rotate(-90 264.238 59.5566)" fill="#C5C5C5"/>
<rect x="264.238" y="40.6494" width="2.83607" height="2.84073" transform="rotate(-90 264.238 40.6494)" fill="#C5C5C5"/>
<rect x="264.238" y="21.7422" width="2.83607" height="2.84073" transform="rotate(-90 264.238 21.7422)" fill="#C5C5C5"/>
<rect x="264.238" y="2.83594" width="2.83607" height="2.84073" transform="rotate(-90 264.238 2.83594)" fill="#C5C5C5"/>
<rect x="283.175" y="173" width="2.83607" height="2.84073" transform="rotate(-90 283.175 173)" fill="#C5C5C5"/>
<rect x="283.175" y="154.093" width="2.83607" height="2.84073" transform="rotate(-90 283.175 154.093)" fill="#C5C5C5"/>
<rect x="283.175" y="135.186" width="2.83607" height="2.84073" transform="rotate(-90 283.175 135.186)" fill="#C5C5C5"/>
<rect x="283.175" y="116.278" width="2.83607" height="2.84073" transform="rotate(-90 283.175 116.278)" fill="#C5C5C5"/>
<rect x="283.175" y="97.3716" width="2.83607" height="2.84073" transform="rotate(-90 283.175 97.3716)" fill="#C5C5C5"/>
<rect x="283.175" y="78.4639" width="2.83607" height="2.84073" transform="rotate(-90 283.175 78.4639)" fill="#C5C5C5"/>
<rect x="283.175" y="59.5566" width="2.83607" height="2.84073" transform="rotate(-90 283.175 59.5566)" fill="#C5C5C5"/>
<rect x="283.175" y="40.6494" width="2.83607" height="2.84073" transform="rotate(-90 283.175 40.6494)" fill="#C5C5C5"/>
<rect x="283.175" y="21.7422" width="2.83607" height="2.84073" transform="rotate(-90 283.175 21.7422)" fill="#C5C5C5"/>
<rect x="283.175" y="2.83594" width="2.83607" height="2.84073" transform="rotate(-90 283.175 2.83594)" fill="#C5C5C5"/>
<rect x="302.114" y="173" width="2.83607" height="2.84073" transform="rotate(-90 302.114 173)" fill="#C5C5C5"/>
<rect x="302.114" y="154.093" width="2.83607" height="2.84073" transform="rotate(-90 302.114 154.093)" fill="#C5C5C5"/>
<rect x="302.114" y="135.186" width="2.83607" height="2.84073" transform="rotate(-90 302.114 135.186)" fill="#C5C5C5"/>
<rect x="302.114" y="116.278" width="2.83607" height="2.84073" transform="rotate(-90 302.114 116.278)" fill="#C5C5C5"/>
<rect x="302.114" y="97.3716" width="2.83607" height="2.84073" transform="rotate(-90 302.114 97.3716)" fill="#C5C5C5"/>
<rect x="302.114" y="78.4639" width="2.83607" height="2.84073" transform="rotate(-90 302.114 78.4639)" fill="#C5C5C5"/>
<rect x="302.114" y="59.5566" width="2.83607" height="2.84073" transform="rotate(-90 302.114 59.5566)" fill="#C5C5C5"/>
<rect x="302.114" y="40.6494" width="2.83607" height="2.84073" transform="rotate(-90 302.114 40.6494)" fill="#C5C5C5"/>
<rect x="302.114" y="21.7422" width="2.83607" height="2.84073" transform="rotate(-90 302.114 21.7422)" fill="#C5C5C5"/>
<rect x="302.114" y="2.83594" width="2.83607" height="2.84073" transform="rotate(-90 302.114 2.83594)" fill="#C5C5C5"/>
<rect x="321.052" y="173" width="2.83607" height="2.84073" transform="rotate(-90 321.052 173)" fill="#C5C5C5"/>
<rect x="321.052" y="154.093" width="2.83607" height="2.84073" transform="rotate(-90 321.052 154.093)" fill="#C5C5C5"/>
<rect x="321.052" y="135.186" width="2.83607" height="2.84073" transform="rotate(-90 321.052 135.186)" fill="#C5C5C5"/>
<rect x="321.052" y="116.278" width="2.83607" height="2.84073" transform="rotate(-90 321.052 116.278)" fill="#C5C5C5"/>
<rect x="321.052" y="97.3716" width="2.83607" height="2.84073" transform="rotate(-90 321.052 97.3716)" fill="#C5C5C5"/>
<rect x="321.052" y="78.4639" width="2.83607" height="2.84073" transform="rotate(-90 321.052 78.4639)" fill="#C5C5C5"/>
<rect x="321.052" y="59.5566" width="2.83607" height="2.84073" transform="rotate(-90 321.052 59.5566)" fill="#C5C5C5"/>
<rect x="321.052" y="40.6494" width="2.83607" height="2.84073" transform="rotate(-90 321.052 40.6494)" fill="#C5C5C5"/>
<rect x="321.052" y="21.7422" width="2.83607" height="2.84073" transform="rotate(-90 321.052 21.7422)" fill="#C5C5C5"/>
<rect x="321.052" y="2.83594" width="2.83607" height="2.84073" transform="rotate(-90 321.052 2.83594)" fill="#C5C5C5"/>
</g>
<g opacity="0.7">
<rect y="173" width="2.83607" height="2.84073" transform="rotate(-90 0 173)" fill="#C5C5C5"/>
<rect y="154.093" width="2.83607" height="2.84073" transform="rotate(-90 0 154.093)" fill="#C5C5C5"/>
<rect y="135.186" width="2.83607" height="2.84073" transform="rotate(-90 0 135.186)" fill="#C5C5C5"/>
<rect y="116.278" width="2.83607" height="2.84073" transform="rotate(-90 0 116.278)" fill="#C5C5C5"/>
<rect y="97.3716" width="2.83607" height="2.84073" transform="rotate(-90 0 97.3716)" fill="#C5C5C5"/>
<rect y="78.4639" width="2.83607" height="2.84073" transform="rotate(-90 0 78.4639)" fill="#C5C5C5"/>
<rect y="59.5566" width="2.83607" height="2.84073" transform="rotate(-90 0 59.5566)" fill="#C5C5C5"/>
<rect y="40.6494" width="2.83607" height="2.84073" transform="rotate(-90 0 40.6494)" fill="#C5C5C5"/>
<rect y="21.7422" width="2.83607" height="2.84073" transform="rotate(-90 0 21.7422)" fill="#C5C5C5"/>
<rect y="2.83594" width="2.83607" height="2.84073" transform="rotate(-90 0 2.83594)" fill="#C5C5C5"/>
<rect x="18.9375" y="173" width="2.83607" height="2.84073" transform="rotate(-90 18.9375 173)" fill="#C5C5C5"/>
<rect x="18.9375" y="154.093" width="2.83607" height="2.84073" transform="rotate(-90 18.9375 154.093)" fill="#C5C5C5"/>
<rect x="18.9375" y="135.186" width="2.83607" height="2.84073" transform="rotate(-90 18.9375 135.186)" fill="#C5C5C5"/>
<rect x="18.9375" y="116.278" width="2.83607" height="2.84073" transform="rotate(-90 18.9375 116.278)" fill="#C5C5C5"/>
<rect x="18.9375" y="97.3716" width="2.83607" height="2.84073" transform="rotate(-90 18.9375 97.3716)" fill="#C5C5C5"/>
<rect x="18.9375" y="78.4639" width="2.83607" height="2.84073" transform="rotate(-90 18.9375 78.4639)" fill="#C5C5C5"/>
<rect x="18.9375" y="59.5566" width="2.83607" height="2.84073" transform="rotate(-90 18.9375 59.5566)" fill="#C5C5C5"/>
<rect x="18.9375" y="40.6494" width="2.83607" height="2.84073" transform="rotate(-90 18.9375 40.6494)" fill="#C5C5C5"/>
<rect x="18.9375" y="21.7422" width="2.83607" height="2.84073" transform="rotate(-90 18.9375 21.7422)" fill="#C5C5C5"/>
<rect x="18.9375" y="2.83594" width="2.83607" height="2.84073" transform="rotate(-90 18.9375 2.83594)" fill="#C5C5C5"/>
<rect x="37.8765" y="173" width="2.83607" height="2.84073" transform="rotate(-90 37.8765 173)" fill="#C5C5C5"/>
<rect x="37.8765" y="154.093" width="2.83607" height="2.84073" transform="rotate(-90 37.8765 154.093)" fill="#C5C5C5"/>
<rect x="37.8765" y="135.186" width="2.83607" height="2.84073" transform="rotate(-90 37.8765 135.186)" fill="#C5C5C5"/>
<rect x="37.8765" y="116.278" width="2.83607" height="2.84073" transform="rotate(-90 37.8765 116.278)" fill="#C5C5C5"/>
<rect x="37.8765" y="97.3716" width="2.83607" height="2.84073" transform="rotate(-90 37.8765 97.3716)" fill="#C5C5C5"/>
<rect x="37.8765" y="78.4639" width="2.83607" height="2.84073" transform="rotate(-90 37.8765 78.4639)" fill="#C5C5C5"/>
<rect x="37.8765" y="59.5566" width="2.83607" height="2.84073" transform="rotate(-90 37.8765 59.5566)" fill="#C5C5C5"/>
<rect x="37.8765" y="40.6494" width="2.83607" height="2.84073" transform="rotate(-90 37.8765 40.6494)" fill="#C5C5C5"/>
<rect x="37.8765" y="21.7422" width="2.83607" height="2.84073" transform="rotate(-90 37.8765 21.7422)" fill="#C5C5C5"/>
<rect x="37.8765" y="2.83594" width="2.83607" height="2.84073" transform="rotate(-90 37.8765 2.83594)" fill="#C5C5C5"/>
<rect x="56.8154" y="173" width="2.83607" height="2.84073" transform="rotate(-90 56.8154 173)" fill="#C5C5C5"/>
<rect x="56.8154" y="154.093" width="2.83607" height="2.84073" transform="rotate(-90 56.8154 154.093)" fill="#C5C5C5"/>
<rect x="56.8154" y="135.186" width="2.83607" height="2.84073" transform="rotate(-90 56.8154 135.186)" fill="#C5C5C5"/>
<rect x="56.8154" y="116.278" width="2.83607" height="2.84073" transform="rotate(-90 56.8154 116.278)" fill="#C5C5C5"/>
<rect x="56.8154" y="97.3716" width="2.83607" height="2.84073" transform="rotate(-90 56.8154 97.3716)" fill="#C5C5C5"/>
<rect x="56.8154" y="78.4639" width="2.83607" height="2.84073" transform="rotate(-90 56.8154 78.4639)" fill="#C5C5C5"/>
<rect x="56.8154" y="59.5566" width="2.83607" height="2.84073" transform="rotate(-90 56.8154 59.5566)" fill="#C5C5C5"/>
<rect x="56.8154" y="40.6494" width="2.83607" height="2.84073" transform="rotate(-90 56.8154 40.6494)" fill="#C5C5C5"/>
<rect x="56.8154" y="21.7422" width="2.83607" height="2.84073" transform="rotate(-90 56.8154 21.7422)" fill="#C5C5C5"/>
<rect x="56.8154" y="2.83594" width="2.83607" height="2.84073" transform="rotate(-90 56.8154 2.83594)" fill="#C5C5C5"/>
<rect x="75.7524" y="173" width="2.83607" height="2.84073" transform="rotate(-90 75.7524 173)" fill="#C5C5C5"/>
<rect x="75.7524" y="154.093" width="2.83607" height="2.84073" transform="rotate(-90 75.7524 154.093)" fill="#C5C5C5"/>
<rect x="75.7524" y="135.186" width="2.83607" height="2.84073" transform="rotate(-90 75.7524 135.186)" fill="#C5C5C5"/>
<rect x="75.7524" y="116.278" width="2.83607" height="2.84073" transform="rotate(-90 75.7524 116.278)" fill="#C5C5C5"/>
<rect x="75.7524" y="97.3716" width="2.83607" height="2.84073" transform="rotate(-90 75.7524 97.3716)" fill="#C5C5C5"/>
<rect x="75.7524" y="78.4639" width="2.83607" height="2.84073" transform="rotate(-90 75.7524 78.4639)" fill="#C5C5C5"/>
<rect x="75.7524" y="59.5566" width="2.83607" height="2.84073" transform="rotate(-90 75.7524 59.5566)" fill="#C5C5C5"/>
<rect x="75.7524" y="40.6494" width="2.83607" height="2.84073" transform="rotate(-90 75.7524 40.6494)" fill="#C5C5C5"/>
<rect x="75.7524" y="21.7422" width="2.83607" height="2.84073" transform="rotate(-90 75.7524 21.7422)" fill="#C5C5C5"/>
<rect x="75.7524" y="2.83594" width="2.83607" height="2.84073" transform="rotate(-90 75.7524 2.83594)" fill="#C5C5C5"/>
<rect x="94.6914" y="173" width="2.83607" height="2.84073" transform="rotate(-90 94.6914 173)" fill="#C5C5C5"/>
<rect x="94.6914" y="154.093" width="2.83607" height="2.84073" transform="rotate(-90 94.6914 154.093)" fill="#C5C5C5"/>
<rect x="94.6914" y="135.186" width="2.83607" height="2.84073" transform="rotate(-90 94.6914 135.186)" fill="#C5C5C5"/>
<rect x="94.6914" y="116.278" width="2.83607" height="2.84073" transform="rotate(-90 94.6914 116.278)" fill="#C5C5C5"/>
<rect x="94.6914" y="97.3716" width="2.83607" height="2.84073" transform="rotate(-90 94.6914 97.3716)" fill="#C5C5C5"/>
<rect x="94.6914" y="78.4639" width="2.83607" height="2.84073" transform="rotate(-90 94.6914 78.4639)" fill="#C5C5C5"/>
<rect x="94.6914" y="59.5566" width="2.83607" height="2.84073" transform="rotate(-90 94.6914 59.5566)" fill="#C5C5C5"/>
<rect x="94.6914" y="40.6494" width="2.83607" height="2.84073" transform="rotate(-90 94.6914 40.6494)" fill="#C5C5C5"/>
<rect x="94.6914" y="21.7422" width="2.83607" height="2.84073" transform="rotate(-90 94.6914 21.7422)" fill="#C5C5C5"/>
<rect x="94.6914" y="2.83594" width="2.83607" height="2.84073" transform="rotate(-90 94.6914 2.83594)" fill="#C5C5C5"/>
<rect x="113.629" y="173" width="2.83607" height="2.84073" transform="rotate(-90 113.629 173)" fill="#C5C5C5"/>
<rect x="113.629" y="154.093" width="2.83607" height="2.84073" transform="rotate(-90 113.629 154.093)" fill="#C5C5C5"/>
<rect x="113.629" y="135.186" width="2.83607" height="2.84073" transform="rotate(-90 113.629 135.186)" fill="#C5C5C5"/>
<rect x="113.629" y="116.278" width="2.83607" height="2.84073" transform="rotate(-90 113.629 116.278)" fill="#C5C5C5"/>
<rect x="113.629" y="97.3716" width="2.83607" height="2.84073" transform="rotate(-90 113.629 97.3716)" fill="#C5C5C5"/>
<rect x="113.629" y="78.4639" width="2.83607" height="2.84073" transform="rotate(-90 113.629 78.4639)" fill="#C5C5C5"/>
<rect x="113.629" y="59.5566" width="2.83607" height="2.84073" transform="rotate(-90 113.629 59.5566)" fill="#C5C5C5"/>
<rect x="113.629" y="40.6494" width="2.83607" height="2.84073" transform="rotate(-90 113.629 40.6494)" fill="#C5C5C5"/>
<rect x="113.629" y="21.7422" width="2.83607" height="2.84073" transform="rotate(-90 113.629 21.7422)" fill="#C5C5C5"/>
<rect x="113.629" y="2.83594" width="2.83607" height="2.84073" transform="rotate(-90 113.629 2.83594)" fill="#C5C5C5"/>
<rect x="132.567" y="173" width="2.83607" height="2.84073" transform="rotate(-90 132.567 173)" fill="#C5C5C5"/>
<rect x="132.568" y="154.093" width="2.83607" height="2.84073" transform="rotate(-90 132.568 154.093)" fill="#C5C5C5"/>
<rect x="132.568" y="135.186" width="2.83607" height="2.84073" transform="rotate(-90 132.568 135.186)" fill="#C5C5C5"/>
<rect x="132.568" y="116.278" width="2.83607" height="2.84073" transform="rotate(-90 132.568 116.278)" fill="#C5C5C5"/>
<rect x="132.568" y="97.3716" width="2.83607" height="2.84073" transform="rotate(-90 132.568 97.3716)" fill="#C5C5C5"/>
<rect x="132.568" y="78.4639" width="2.83607" height="2.84073" transform="rotate(-90 132.568 78.4639)" fill="#C5C5C5"/>
<rect x="132.568" y="59.5566" width="2.83607" height="2.84073" transform="rotate(-90 132.568 59.5566)" fill="#C5C5C5"/>
<rect x="132.568" y="40.6494" width="2.83607" height="2.84073" transform="rotate(-90 132.568 40.6494)" fill="#C5C5C5"/>
<rect x="132.568" y="21.7422" width="2.83607" height="2.84073" transform="rotate(-90 132.568 21.7422)" fill="#C5C5C5"/>
<rect x="132.568" y="2.83594" width="2.83607" height="2.84073" transform="rotate(-90 132.568 2.83594)" fill="#C5C5C5"/>
<rect x="151.506" y="173" width="2.83607" height="2.84073" transform="rotate(-90 151.506 173)" fill="#C5C5C5"/>
<rect x="151.506" y="154.093" width="2.83607" height="2.84073" transform="rotate(-90 151.506 154.093)" fill="#C5C5C5"/>
<rect x="151.506" y="135.186" width="2.83607" height="2.84073" transform="rotate(-90 151.506 135.186)" fill="#C5C5C5"/>
<rect x="151.506" y="116.278" width="2.83607" height="2.84073" transform="rotate(-90 151.506 116.278)" fill="#C5C5C5"/>
<rect x="151.506" y="97.3716" width="2.83607" height="2.84073" transform="rotate(-90 151.506 97.3716)" fill="#C5C5C5"/>
<rect x="151.506" y="78.4639" width="2.83607" height="2.84073" transform="rotate(-90 151.506 78.4639)" fill="#C5C5C5"/>
<rect x="151.506" y="59.5566" width="2.83607" height="2.84073" transform="rotate(-90 151.506 59.5566)" fill="#C5C5C5"/>
<rect x="151.506" y="40.6494" width="2.83607" height="2.84073" transform="rotate(-90 151.506 40.6494)" fill="#C5C5C5"/>
<rect x="151.506" y="21.7422" width="2.83607" height="2.84073" transform="rotate(-90 151.506 21.7422)" fill="#C5C5C5"/>
<rect x="151.506" y="2.83594" width="2.83607" height="2.84073" transform="rotate(-90 151.506 2.83594)" fill="#C5C5C5"/>
<rect x="170.443" y="173" width="2.83607" height="2.84073" transform="rotate(-90 170.443 173)" fill="#C5C5C5"/>
<rect x="170.443" y="154.093" width="2.83607" height="2.84073" transform="rotate(-90 170.443 154.093)" fill="#C5C5C5"/>
<rect x="170.443" y="135.186" width="2.83607" height="2.84073" transform="rotate(-90 170.443 135.186)" fill="#C5C5C5"/>
<rect x="170.443" y="116.278" width="2.83607" height="2.84073" transform="rotate(-90 170.443 116.278)" fill="#C5C5C5"/>
<rect x="170.443" y="97.3716" width="2.83607" height="2.84073" transform="rotate(-90 170.443 97.3716)" fill="#C5C5C5"/>
<rect x="170.443" y="78.4639" width="2.83607" height="2.84073" transform="rotate(-90 170.443 78.4639)" fill="#C5C5C5"/>
<rect x="170.443" y="59.5566" width="2.83607" height="2.84073" transform="rotate(-90 170.443 59.5566)" fill="#C5C5C5"/>
<rect x="170.443" y="40.6494" width="2.83607" height="2.84073" transform="rotate(-90 170.443 40.6494)" fill="#C5C5C5"/>
<rect x="170.443" y="21.7422" width="2.83607" height="2.84073" transform="rotate(-90 170.443 21.7422)" fill="#C5C5C5"/>
<rect x="170.443" y="2.83594" width="2.83607" height="2.84073" transform="rotate(-90 170.443 2.83594)" fill="#C5C5C5"/>
<rect x="189.382" y="173" width="2.83607" height="2.84073" transform="rotate(-90 189.382 173)" fill="#C5C5C5"/>
<rect x="189.383" y="154.093" width="2.83607" height="2.84073" transform="rotate(-90 189.383 154.093)" fill="#C5C5C5"/>
<rect x="189.383" y="135.186" width="2.83607" height="2.84073" transform="rotate(-90 189.383 135.186)" fill="#C5C5C5"/>
<rect x="189.383" y="116.278" width="2.83607" height="2.84073" transform="rotate(-90 189.383 116.278)" fill="#C5C5C5"/>
<rect x="189.383" y="97.3716" width="2.83607" height="2.84073" transform="rotate(-90 189.383 97.3716)" fill="#C5C5C5"/>
<rect x="189.383" y="78.4639" width="2.83607" height="2.84073" transform="rotate(-90 189.383 78.4639)" fill="#C5C5C5"/>
<rect x="189.383" y="59.5566" width="2.83607" height="2.84073" transform="rotate(-90 189.383 59.5566)" fill="#C5C5C5"/>
<rect x="189.383" y="40.6494" width="2.83607" height="2.84073" transform="rotate(-90 189.383 40.6494)" fill="#C5C5C5"/>
<rect x="189.383" y="21.7422" width="2.83607" height="2.84073" transform="rotate(-90 189.383 21.7422)" fill="#C5C5C5"/>
<rect x="189.383" y="2.83594" width="2.83607" height="2.84073" transform="rotate(-90 189.383 2.83594)" fill="#C5C5C5"/>
</g>
</svg>
