<svg width="198.876953" height="65.000000" viewBox="0 0 198.877 65" fill="none" xmlns="http://www.w3.org/2000/svg" xmlns:xlink="http://www.w3.org/1999/xlink">
	<desc>
			Created with Pixso.
	</desc>
	<defs/>
	<path id="DiveSea" d="M99.24 24.95Q99.8 25.24 100.51 25.24Q101.25 25.24 101.82 24.93Q102.11 24.77 102.35 24.54Q102.69 24.22 102.88 23.82Q103.09 23.36 103.09 22.79Q103.09 22.21 102.87 21.74Q102.68 21.35 102.35 21.04Q102.11 20.8 101.82 20.65Q101.25 20.34 100.51 20.34Q99.8 20.34 99.24 20.63Q98.93 20.79 98.67 21.04Q98.35 21.35 98.17 21.72Q97.94 22.2 97.94 22.79Q97.94 23.37 98.16 23.84Q98.34 24.22 98.67 24.54Q98.93 24.79 99.24 24.95ZM146.37 43.26Q148.12 44.01 150.31 44.01Q152.61 44.01 154.28 43.15Q155.76 42.4 156.6 41.2Q156.72 41.04 156.82 40.86Q157.27 40.12 157.49 39.31Q157.69 38.56 157.69 37.75Q157.69 35.8 156.77 34.61Q156.07 33.71 155.17 33.15Q154.87 32.96 154.55 32.81Q153.27 32.22 151.24 31.62Q149.74 31.16 148.91 30.82Q148.09 30.48 147.54 29.93Q147.33 29.72 147.19 29.46Q146.98 29.05 146.98 28.53Q146.98 27.58 147.45 26.99Q147.57 26.84 147.71 26.71Q147.75 26.67 147.79 26.64Q148.52 26.08 149.68 26.08Q151.02 26.08 151.86 26.73Q151.9 26.76 151.94 26.79Q152.4 27.17 152.63 27.66Q152.82 28.07 152.85 28.56L157.46 28.56Q157.32 26.75 156.43 25.45Q155.94 24.74 155.22 24.18Q155.21 24.17 155.2 24.16Q153.19 22.61 149.98 22.61Q147.82 22.61 146.14 23.35Q144.82 23.92 143.97 24.9Q143.74 25.17 143.54 25.46Q143.38 25.71 143.24 25.97Q142.62 27.17 142.62 28.69Q142.62 30.66 143.53 31.84Q144.23 32.75 145.15 33.31Q145.42 33.47 145.71 33.6Q146.98 34.19 149.02 34.79Q150.51 35.2 151.37 35.55Q152.22 35.9 152.79 36.5Q152.96 36.67 153.07 36.86Q153.36 37.35 153.36 38.02Q153.36 38.64 153.11 39.14Q152.9 39.55 152.52 39.86Q151.68 40.57 150.21 40.57Q148.87 40.57 148.06 39.91Q148 39.86 147.96 39.82Q147.76 39.64 147.61 39.44Q147.12 38.76 147.04 37.78L142.56 37.78Q142.58 39.24 143.18 40.41Q143.36 40.77 143.6 41.11Q143.79 41.36 144 41.6Q144.94 42.65 146.37 43.26ZM90.03 24.19Q87.53 22.91 84.24 22.91L76.94 22.91L76.94 43.79L84.24 43.79Q87.53 43.79 90.03 42.51Q91.56 41.72 92.67 40.53Q93.36 39.78 93.89 38.88Q95.25 36.53 95.25 33.38Q95.25 30.29 93.93 27.93Q93.91 27.9 93.89 27.86Q93.31 26.85 92.53 26.04Q91.47 24.93 90.03 24.19ZM88.8 38.78Q87.05 40.24 84.09 40.24L81.13 40.24L81.13 26.44L84.09 26.44Q86.96 26.44 88.7 27.84Q88.95 28.04 89.18 28.28Q89.38 28.49 89.57 28.72Q90.97 30.5 90.97 33.38Q90.97 36.28 89.56 38.02Q89.38 38.24 89.18 38.44Q88.99 38.62 88.8 38.78ZM139.92 36.76Q140.04 36.04 140.04 35.14Q140.04 32.79 139.06 30.95Q139.03 30.9 139 30.85Q138.48 29.89 137.74 29.16Q137.02 28.46 136.11 27.96Q135.93 27.87 135.76 27.79Q134.02 26.95 131.88 26.95Q129.48 26.95 127.62 27.95Q127.58 27.98 127.54 28Q126.74 28.44 126.1 29.04Q125.21 29.86 124.6 30.99Q123.55 32.93 123.55 35.5Q123.55 38.05 124.61 40Q125.21 41.08 126.06 41.89Q126.74 42.53 127.58 43.01Q127.83 43.14 128.08 43.26Q129.79 44.06 131.88 44.06Q134.38 44.06 136.23 42.96Q136.56 42.76 136.86 42.52Q137.99 41.67 138.72 40.55Q139.3 39.65 139.63 38.59L135.1 38.59Q134.65 39.52 133.9 40.02Q133.04 40.59 131.79 40.59Q130.75 40.59 129.92 40.18Q129.45 39.94 129.06 39.58Q128.86 39.4 128.7 39.2Q127.93 38.24 127.81 36.76L139.92 36.76ZM176.61 36.76Q176.73 36.04 176.73 35.14Q176.73 32.79 175.75 30.95Q175.72 30.9 175.69 30.85Q175.16 29.89 174.42 29.16Q173.71 28.46 172.79 27.96Q172.62 27.87 172.45 27.79Q170.7 26.95 168.56 26.95Q166.16 26.95 164.31 27.95Q164.26 27.98 164.22 28Q163.43 28.44 162.78 29.04Q161.89 29.86 161.28 30.99Q160.24 32.93 160.24 35.5Q160.24 38.05 161.3 40Q161.89 41.08 162.75 41.89Q163.42 42.53 164.26 43.01Q164.51 43.14 164.77 43.26Q166.48 44.06 168.56 44.06Q171.07 44.06 172.91 42.96Q173.24 42.76 173.55 42.52Q174.68 41.67 175.4 40.55Q175.99 39.65 176.31 38.59L171.79 38.59Q171.33 39.52 170.58 40.02Q169.72 40.59 168.47 40.59Q167.43 40.59 166.6 40.18Q166.14 39.94 165.74 39.58Q165.55 39.4 165.39 39.2Q164.61 38.24 164.49 36.76L176.61 36.76ZM179.7 30.99Q178.7 32.93 178.7 35.44Q178.7 37.99 179.7 39.95Q180.5 41.5 181.73 42.49Q182.06 42.76 182.43 42.99Q183.13 43.43 183.89 43.69Q185 44.06 186.24 44.06Q188.1 44.06 189.51 43.3Q190.94 42.54 191.75 41.37L191.75 43.79L195.97 43.79L195.97 27.22L191.75 27.22L191.75 29.58Q190.91 28.45 189.51 27.7Q188.13 26.95 186.27 26.95Q184.87 26.95 183.64 27.41Q183.01 27.64 182.43 28Q182.06 28.22 181.73 28.48Q180.5 29.46 179.7 30.99ZM102.58 43.79L102.58 27.22L98.39 27.22L98.39 43.79L102.58 43.79ZM117.81 27.22L113.62 39.94L109.43 27.22L104.94 27.22L111.05 43.79L116.14 43.79L122.27 27.22L117.81 27.22ZM135.25 32.21Q135.69 32.96 135.7 33.95L127.84 33.95Q128.04 32.52 128.84 31.63Q128.98 31.47 129.14 31.33Q129.47 31.03 129.86 30.83Q130.69 30.39 131.75 30.39Q132.92 30.39 133.82 30.87Q134.2 31.08 134.53 31.36Q134.98 31.74 135.25 32.21ZM171.94 32.21Q172.37 32.96 172.39 33.95L164.52 33.95Q164.73 32.52 165.52 31.63Q165.66 31.47 165.82 31.33Q166.16 31.03 166.55 30.83Q167.38 30.39 168.44 30.39Q169.6 30.39 170.51 30.87Q170.89 31.08 171.22 31.36Q171.66 31.74 171.94 32.21ZM191.15 32.89Q191.75 33.98 191.75 35.5Q191.75 37.03 191.15 38.13Q190.73 38.89 190.11 39.4Q189.84 39.62 189.54 39.8Q189.02 40.1 188.46 40.24Q187.93 40.38 187.35 40.38Q186.87 40.38 186.42 40.28Q185.79 40.13 185.21 39.78Q185.03 39.67 184.86 39.55Q184.1 38.98 183.6 38.07Q182.98 36.94 182.98 35.44Q182.98 33.95 183.6 32.86Q184.11 31.94 184.89 31.39Q185.04 31.29 185.2 31.2Q185.59 30.97 186.02 30.83Q186.65 30.63 187.35 30.63Q187.93 30.63 188.46 30.77Q189.02 30.92 189.54 31.21Q189.82 31.38 190.08 31.59Q190.72 32.11 191.15 32.89Z" fill="#FFFFFF" fill-opacity="1.000000" fill-rule="evenodd"/>
	<path id="Vector" d="M57.55 44.3C55.16 44.3 54.11 43.38 52.62 42.08C50.96 40.67 48.91 38.89 45.03 38.89C41.13 38.89 39.1 40.67 37.45 42.08C35.96 43.38 34.88 44.3 32.49 44.3C30.14 44.3 29.05 43.38 27.57 42.08C25.91 40.67 23.85 38.89 19.98 38.89C16.08 38.89 14.02 40.67 12.37 42.08C10.88 43.38 9.83 44.3 7.44 44.3C6.33 44.3 5.41 45.22 5.41 46.33C5.41 47.47 6.33 48.37 7.44 48.37C11.34 48.37 13.37 46.6 15.03 45.17C16.52 43.87 17.6 42.95 19.98 42.95C22.37 42.95 23.42 43.87 24.91 45.17C26.56 46.6 28.62 48.37 32.49 48.37C36.39 48.37 38.45 46.6 40.1 45.17C41.59 43.87 42.65 42.95 45.03 42.95C47.39 42.95 48.47 43.87 49.96 45.17C51.62 46.6 53.67 48.37 57.55 48.37C58.66 48.37 59.58 47.47 59.58 46.33C59.58 45.22 58.66 44.3 57.55 44.3Z" fill="#FFFFFF" fill-opacity="1.000000" fill-rule="nonzero"/>
	<path id="Vector" d="M57.55 33.15C55.16 33.15 54.11 32.2 52.62 30.92C50.96 29.49 48.91 27.73 45.03 27.73C41.13 27.73 39.1 29.49 37.45 30.92C35.96 32.2 34.88 33.15 32.49 33.15C30.14 33.15 29.05 32.2 27.57 30.92C25.91 29.49 23.85 27.73 19.98 27.73C16.08 27.73 14.02 29.49 12.37 30.92C10.88 32.2 9.83 33.15 7.44 33.15C6.33 33.15 5.41 34.04 5.41 35.18C5.41 36.29 6.33 37.21 7.44 37.21C11.34 37.21 13.37 35.42 15.03 33.99C16.52 32.71 17.6 31.79 19.98 31.79C22.37 31.79 23.42 32.71 24.91 33.99C26.56 35.42 28.62 37.21 32.49 37.21C36.39 37.21 38.45 35.42 40.1 33.99C41.59 32.71 42.65 31.79 45.03 31.79C47.39 31.79 48.47 32.71 49.96 33.99C51.62 35.42 53.67 37.21 57.55 37.21C58.66 37.21 59.58 36.29 59.58 35.18C59.58 34.04 58.66 33.15 57.55 33.15Z" fill="#FFFFFF" fill-opacity="1.000000" fill-rule="nonzero"/>
	<path id="Vector" d="M7.44 26.1C11.34 26.1 13.37 24.32 15.03 22.91C16.52 21.61 17.6 20.69 19.98 20.69C22.37 20.69 23.42 21.61 24.91 22.91C26.56 24.32 28.62 26.1 32.49 26.1C36.39 26.1 38.45 24.32 40.1 22.91C41.59 21.61 42.65 20.69 45.03 20.69C47.39 20.69 48.47 21.61 49.96 22.91C51.62 24.32 53.67 26.1 57.55 26.1C58.66 26.1 59.58 25.18 59.58 24.07C59.58 22.93 58.66 22.04 57.55 22.04C55.16 22.04 54.11 21.12 52.62 19.82C50.96 18.38 48.91 16.62 45.03 16.62C41.13 16.62 39.1 18.38 37.45 19.82C35.96 21.12 34.88 22.04 32.49 22.04C30.14 22.04 29.05 21.12 27.57 19.82C25.91 18.38 23.85 16.62 19.98 16.62C16.08 16.62 14.02 18.38 12.37 19.82C10.88 21.12 9.83 22.04 7.44 22.04C6.33 22.04 5.41 22.93 5.41 24.07C5.41 25.18 6.33 26.1 7.44 26.1Z" fill="#FFFFFF" fill-opacity="1.000000" fill-rule="nonzero"/>
</svg>
