<?xml version="1.0" standalone="no"?>
<!DOCTYPE svg PUBLIC "-//W3C//DTD SVG 20010904//EN"
 "http://www.w3.org/TR/2001/REC-SVG-20010904/DTD/svg10.dtd">
<svg version="1.0" xmlns="http://www.w3.org/2000/svg"
 width="50.000000pt" height="50.000000pt" viewBox="0 0 50.000000 50.000000"
 preserveAspectRatio="xMidYMid meet">

<g transform="translate(0.000000,50.000000) scale(0.100000,-0.100000)"
fill="#000000" stroke="none">
<path d="M140 431 l-105 -58 0 -123 0 -123 108 -59 108 -60 107 59 107 60 0
124 0 124 -105 57 c-58 32 -107 58 -110 58 -3 0 -52 -27 -110 -59z m210 -17
l100 -56 0 -108 0 -108 -99 -56 -100 -55 -100 55 -101 55 0 109 0 109 97 54
c54 30 99 55 100 56 2 1 48 -24 103 -55z"/>
<path d="M110 250 c0 -33 4 -60 10 -60 6 0 10 19 10 43 l1 42 25 -42 c14 -24
30 -43 35 -43 5 0 9 27 9 60 0 33 -4 60 -10 60 -5 0 -10 -17 -10 -37 l-1 -38
-22 37 c-33 56 -47 49 -47 -22z"/>
<path d="M230 250 c0 -33 4 -60 10 -60 6 0 10 11 10 25 0 18 5 25 20 25 11 0
20 5 20 10 0 6 -9 10 -20 10 -11 0 -20 7 -20 15 0 8 9 15 20 15 11 0 20 5 20
10 0 6 -13 10 -30 10 l-30 0 0 -60z"/>
<path d="M300 300 c0 -5 9 -10 20 -10 17 0 20 -7 20 -51 0 -31 4 -48 10 -44 6
3 10 26 10 51 0 32 4 44 15 44 8 0 15 5 15 10 0 6 -20 10 -45 10 -25 0 -45 -4
-45 -10z"/>
</g>
</svg>
