<svg width="25.186523" height="25.186516" viewBox="0 0 25.1865 25.1865" fill="none" xmlns="http://www.w3.org/2000/svg" xmlns:xlink="http://www.w3.org/1999/xlink">
	<desc>
			Created with Pixso.
	</desc>
	<defs/>
	<path id="Vector" d="M17.98 2.05L7.19 2.05C5.58 2.05 4.26 3.36 4.26 4.99L4.26 20.09C4.26 21.72 5.58 23.04 7.19 23.04L17.98 23.04C19.61 23.04 20.92 21.72 20.92 20.09L20.92 4.99C20.92 3.36 19.61 2.05 17.98 2.05ZM8.28 17.2L16.9 17.2C17.34 17.2 17.69 17.55 17.69 17.98C17.69 18.41 17.34 18.77 16.9 18.77L8.28 18.77C7.84 18.77 7.49 18.41 7.49 17.98C7.49 17.55 7.84 17.2 8.28 17.2ZM7.49 12.59C7.49 12.16 7.84 11.8 8.28 11.8L16.9 11.8C17.34 11.8 17.69 12.16 17.69 12.59C17.69 13.03 17.34 13.38 16.9 13.38L8.28 13.38C7.84 13.38 7.49 13.03 7.49 12.59ZM16.9 7.98L8.28 7.98C7.84 7.98 7.49 7.63 7.49 7.19C7.49 6.76 7.84 6.41 8.28 6.41L16.9 6.41C17.34 6.41 17.69 6.76 17.69 7.19C17.69 7.63 17.34 7.98 16.9 7.98Z" fill="#000000" fill-opacity="1.000000" fill-rule="nonzero"/>
</svg>
