<svg width="53.000000" height="53.000000" viewBox="0 0 53 53" fill="none" xmlns="http://www.w3.org/2000/svg" xmlns:xlink="http://www.w3.org/1999/xlink">
	<desc>
			Created with Pixso.
	</desc>
	<defs/>
	<path id="Vector" d="M46.92 36.12C44.98 36.12 44.12 35.37 42.9 34.31C41.56 33.16 39.88 31.71 36.72 31.71C33.54 31.71 31.88 33.16 30.54 34.31C29.32 35.37 28.44 36.12 26.5 36.12C24.57 36.12 23.69 35.37 22.48 34.31C21.13 33.16 19.45 31.71 16.29 31.71C13.11 31.71 11.43 33.16 10.09 34.31C8.87 35.37 8.01 36.12 6.07 36.12C5.16 36.12 4.41 36.87 4.41 37.78C4.41 38.71 5.16 39.44 6.07 39.44C9.25 39.44 10.9 38 12.25 36.83C13.47 35.77 14.35 35.02 16.29 35.02C18.24 35.02 19.1 35.77 20.31 36.83C21.66 38 23.34 39.44 26.5 39.44C29.68 39.44 31.35 38 32.7 36.83C33.91 35.77 34.78 35.02 36.72 35.02C38.64 35.02 39.52 35.77 40.74 36.83C42.09 38 43.76 39.44 46.92 39.44C47.83 39.44 48.58 38.71 48.58 37.78C48.58 36.87 47.83 36.12 46.92 36.12Z" fill="#141416" fill-opacity="1.000000" fill-rule="nonzero"/>
	<path id="Vector" d="M46.92 27.03C44.98 27.03 44.12 26.25 42.9 25.21C41.56 24.04 39.88 22.61 36.72 22.61C33.54 22.61 31.88 24.04 30.54 25.21C29.32 26.25 28.44 27.03 26.5 27.03C24.57 27.03 23.69 26.25 22.48 25.21C21.13 24.04 19.45 22.61 16.29 22.61C13.11 22.61 11.43 24.04 10.09 25.21C8.87 26.25 8.01 27.03 6.07 27.03C5.16 27.03 4.41 27.75 4.41 28.68C4.41 29.59 5.16 30.34 6.07 30.34C9.25 30.34 10.9 28.88 12.25 27.71C13.47 26.67 14.35 25.92 16.29 25.92C18.24 25.92 19.1 26.67 20.31 27.71C21.66 28.88 23.34 30.34 26.5 30.34C29.68 30.34 31.35 28.88 32.7 27.71C33.91 26.67 34.78 25.92 36.72 25.92C38.64 25.92 39.52 26.67 40.74 27.71C42.09 28.88 43.76 30.34 46.92 30.34C47.83 30.34 48.58 29.59 48.58 28.68C48.58 27.75 47.83 27.03 46.92 27.03Z" fill="#141416" fill-opacity="1.000000" fill-rule="nonzero"/>
	<path id="Vector" d="M6.07 21.28C9.25 21.28 10.9 19.83 12.25 18.68C13.47 17.62 14.35 16.87 16.29 16.87C18.24 16.87 19.1 17.62 20.31 18.68C21.66 19.83 23.34 21.28 26.5 21.28C29.68 21.28 31.35 19.83 32.7 18.68C33.91 17.62 34.78 16.87 36.72 16.87C38.64 16.87 39.52 17.62 40.74 18.68C42.09 19.83 43.76 21.28 46.92 21.28C47.83 21.28 48.58 20.53 48.58 19.63C48.58 18.7 47.83 17.97 46.92 17.97C44.98 17.97 44.12 17.22 42.9 16.16C41.56 14.99 39.88 13.55 36.72 13.55C33.54 13.55 31.88 14.99 30.54 16.16C29.32 17.22 28.44 17.97 26.5 17.97C24.57 17.97 23.69 17.22 22.48 16.16C21.13 14.99 19.45 13.55 16.29 13.55C13.11 13.55 11.43 14.99 10.09 16.16C8.87 17.22 8.01 17.97 6.07 17.97C5.16 17.97 4.41 18.7 4.41 19.63C4.41 20.53 5.16 21.28 6.07 21.28Z" fill="#141416" fill-opacity="1.000000" fill-rule="nonzero"/>
</svg>
