<svg width="25.186523" height="25.186516" viewBox="0 0 25.1865 25.1865" fill="none" xmlns="http://www.w3.org/2000/svg" xmlns:xlink="http://www.w3.org/1999/xlink">
	<desc>
			Created with Pixso.
	</desc>
	<defs/>
	<path id="Vector" d="M19.06 2.09L6.11 2.09C3.9 2.09 2.09 3.9 2.09 6.11L2.09 19.06C2.09 21.28 3.9 23.08 6.11 23.08L19.06 23.08C20.97 23.08 22.57 21.74 22.98 19.96C23.04 19.84 23.08 19.71 23.08 19.58L23.08 6.11C23.08 3.9 21.28 2.09 19.06 2.09ZM19.85 13.67C19.85 14.1 19.49 14.46 19.06 14.46C18.62 14.46 18.28 14.1 18.28 13.67L18.28 11.51C18.28 11.08 18.62 10.72 19.06 10.72C19.49 10.72 19.85 11.08 19.85 11.51L19.85 13.67ZM5.33 13.67L5.33 11.51C5.33 11.08 5.68 10.72 6.11 10.72C6.55 10.72 6.9 11.08 6.9 11.51L6.9 13.67C6.9 14.1 6.55 14.46 6.11 14.46C5.68 14.46 5.33 14.1 5.33 13.67ZM16.61 9.36L16.61 15.82C16.61 16.26 16.26 16.61 15.82 16.61C15.39 16.61 15.03 16.26 15.03 15.82L15.03 9.36C15.03 8.92 15.39 8.57 15.82 8.57C16.26 8.57 16.61 8.92 16.61 9.36ZM13.37 7.19L13.37 17.98C13.37 18.41 13.02 18.77 12.59 18.77C12.16 18.77 11.8 18.41 11.8 17.98L11.8 7.19C11.8 6.76 12.16 6.41 12.59 6.41C13.02 6.41 13.37 6.76 13.37 7.19ZM10.14 9.36L10.14 15.82C10.14 16.26 9.79 16.61 9.36 16.61C8.91 16.61 8.57 16.26 8.57 15.82L8.57 9.36C8.57 8.92 8.91 8.57 9.36 8.57C9.79 8.57 10.14 8.92 10.14 9.36Z" fill="#000000" fill-opacity="1.000000" fill-rule="nonzero"/>
</svg>
